<?xml version="1.0" encoding="UTF-8" standalone="no"?>
<!DOCTYPE svg PUBLIC "-//W3C//DTD SVG 1.1//EN"
 "http://www.w3.org/Graphics/SVG/1.1/DTD/svg11.dtd">
<!-- Generated by graphviz version 2.40.1 (20161225.0304)
 -->
<!-- Title: %0 Pages: 1 -->
<svg width="301pt" height="310pt"
 viewBox="0.00 0.00 301.00 310.00" xmlns="http://www.w3.org/2000/svg" xmlns:xlink="http://www.w3.org/1999/xlink">
<g id="graph0" class="graph" transform="scale(1 1) rotate(0) translate(4 306)">
<title>%0</title>
<g id="a_graph0"><a xlink:title="Data Model">
</a>
</g>
<!-- films -->
<g id="films" class="node">
<title>films</title>
<polygon fill="#c2c7b5" stroke="transparent" points="150,-201 150,-221 182,-221 182,-201 150,-201"/>
<text text-anchor="start" x="151.6178" y="-206.4" font-family="Helvetica,sans-Serif" font-size="14.00" fill="#000000">films</text>
<polygon fill="#f2f3f0" stroke="transparent" points="150,-181 150,-201 182,-201 182,-181 150,-181"/>
<text text-anchor="start" x="152" y="-187.4" font-family="Helvetica,sans-Serif" text-decoration="underline" font-size="14.00" fill="#444444">title</text>
<polygon fill="none" stroke="#818478" stroke-opacity="0.666667" points="149,-180 149,-222 183,-222 183,-180 149,-180"/>
</g>
<!-- films_people -->
<g id="films_people" class="node">
<title>films_people</title>
<polygon fill="#c2c7b5" stroke="transparent" points="5.5,-201 5.5,-221 87.5,-221 87.5,-201 5.5,-201"/>
<text text-anchor="start" x="7.2167" y="-206.4" font-family="Helvetica,sans-Serif" font-size="14.00" fill="#000000">films_people</text>
<polygon fill="#f2f3f0" stroke="transparent" points="5.5,-181 5.5,-201 87.5,-201 87.5,-181 5.5,-181"/>
<text text-anchor="start" x="7.5" y="-186.4" font-family="Helvetica,sans-Serif" font-size="14.00" fill="#444444">title</text>
<polygon fill="#f2f3f0" stroke="transparent" points="5.5,-161 5.5,-181 87.5,-181 87.5,-161 5.5,-161"/>
<text text-anchor="start" x="7.5" y="-166.4" font-family="Helvetica,sans-Serif" font-size="14.00" fill="#444444">character</text>
<polygon fill="none" stroke="#818478" stroke-opacity="0.666667" points="4.5,-160 4.5,-222 88.5,-222 88.5,-160 4.5,-160"/>
</g>
<!-- films_people&#45;&gt;films -->
<g id="films_people_1" class="edge">
<title>films_people:title&#45;&gt;films:title</title>
<path fill="none" stroke="#555555" d="M87.5,-191C111.5885,-191 120.0101,-191 139.9371,-191"/>
<polygon fill="#555555" stroke="#555555" points="140,-194.5001 150,-191 140,-187.5001 140,-194.5001"/>
</g>
<!-- people -->
<g id="people" class="node">
<title>people</title>
<polygon fill="#6e989b" stroke="transparent" points="130,-141 130,-161 202,-161 202,-141 130,-141"/>
<text text-anchor="start" x="144.9902" y="-146.4" font-family="Helvetica,sans-Serif" font-size="14.00" fill="#ffffff">people</text>
<polygon fill="#e2eaeb" stroke="transparent" points="130,-121 130,-141 202,-141 202,-121 130,-121"/>
<text text-anchor="start" x="132" y="-127.4" font-family="Helvetica,sans-Serif" text-decoration="underline" font-size="14.00" fill="#444444">name</text>
<polygon fill="#e2eaeb" stroke="transparent" points="130,-101 130,-121 202,-121 202,-101 130,-101"/>
<text text-anchor="start" x="131.7763" y="-106.4" font-family="Helvetica,sans-Serif" font-size="14.00" fill="#444444">homeworld</text>
<polygon fill="#e2eaeb" stroke="transparent" points="130,-81 130,-101 202,-101 202,-81 130,-81"/>
<text text-anchor="start" x="132" y="-86.4" font-family="Helvetica,sans-Serif" font-size="14.00" fill="#444444">species</text>
<polygon fill="none" stroke="#496567" stroke-opacity="0.666667" points="129,-80 129,-162 203,-162 203,-80 129,-80"/>
</g>
<!-- films_people&#45;&gt;people -->
<g id="films_people_2" class="edge">
<title>films_people:character&#45;&gt;people:name</title>
<path fill="none" stroke="#555555" d="M87.5,-171C109.3862,-171 106.1293,-142.5234 120.1583,-133.6245"/>
<polygon fill="#555555" stroke="#555555" points="121.2395,-136.9586 130,-131 119.4358,-130.1949 121.2395,-136.9586"/>
</g>
<!-- films_planets -->
<g id="films_planets" class="node">
<title>films_planets</title>
<polygon fill="#c2c7b5" stroke="transparent" points="4.5,-281 4.5,-301 89.5,-301 89.5,-281 4.5,-281"/>
<text text-anchor="start" x="6.1627" y="-286.4" font-family="Helvetica,sans-Serif" font-size="14.00" fill="#000000">films_planets</text>
<polygon fill="#f2f3f0" stroke="transparent" points="4.5,-261 4.5,-281 89.5,-281 89.5,-261 4.5,-261"/>
<text text-anchor="start" x="6.5" y="-266.4" font-family="Helvetica,sans-Serif" font-size="14.00" fill="#444444">title</text>
<polygon fill="#f2f3f0" stroke="transparent" points="4.5,-241 4.5,-261 89.5,-261 89.5,-241 4.5,-241"/>
<text text-anchor="start" x="6.5" y="-246.4" font-family="Helvetica,sans-Serif" font-size="14.00" fill="#444444">planet</text>
<polygon fill="none" stroke="#818478" stroke-opacity="0.666667" points="3,-240 3,-302 90,-302 90,-240 3,-240"/>
</g>
<!-- films_planets&#45;&gt;films -->
<g id="films_planets_1" class="edge">
<title>films_planets:title&#45;&gt;films:title</title>
<path fill="none" stroke="#555555" d="M89.5,-271C130.2472,-271 109.8063,-204.1592 140.0368,-192.6709"/>
<polygon fill="#555555" stroke="#555555" points="140.7167,-196.1059 150,-191 139.5588,-189.2023 140.7167,-196.1059"/>
</g>
<!-- planets -->
<g id="planets" class="node">
<title>planets</title>
<polygon fill="#bc4610" stroke="transparent" points="242,-210 242,-230 291,-230 291,-210 242,-210"/>
<text text-anchor="start" x="243.9362" y="-215.4" font-family="Helvetica,sans-Serif" font-size="14.00" fill="#ffffff">planets</text>
<polygon fill="#f1dacf" stroke="transparent" points="242,-190 242,-210 291,-210 291,-190 242,-190"/>
<text text-anchor="start" x="244" y="-196.4" font-family="Helvetica,sans-Serif" text-decoration="underline" font-size="14.00" fill="#444444">name</text>
<polygon fill="none" stroke="#7d2e0a" stroke-opacity="0.666667" points="240.5,-189 240.5,-231 291.5,-231 291.5,-189 240.5,-189"/>
</g>
<!-- films_planets&#45;&gt;planets -->
<g id="films_planets_2" class="edge">
<title>films_planets:planet&#45;&gt;planets:name</title>
<path fill="none" stroke="#555555" d="M89.5,-251C140.7216,-251 156.2933,-252.027 203,-231 219.4047,-223.6147 220.2806,-207.7657 231.9089,-202.0819"/>
<polygon fill="#555555" stroke="#555555" points="232.9135,-205.4485 242,-200 231.499,-198.5928 232.9135,-205.4485"/>
</g>
<!-- films_vehicles -->
<g id="films_vehicles" class="node">
<title>films_vehicles</title>
<polygon fill="#c2c7b5" stroke="transparent" points="1.5,-121 1.5,-141 92.5,-141 92.5,-121 1.5,-121"/>
<text text-anchor="start" x="3.446" y="-126.4" font-family="Helvetica,sans-Serif" font-size="14.00" fill="#000000">films_vehicles</text>
<polygon fill="#f2f3f0" stroke="transparent" points="1.5,-101 1.5,-121 92.5,-121 92.5,-101 1.5,-101"/>
<text text-anchor="start" x="3.5" y="-106.4" font-family="Helvetica,sans-Serif" font-size="14.00" fill="#444444">title</text>
<polygon fill="#f2f3f0" stroke="transparent" points="1.5,-81 1.5,-101 92.5,-101 92.5,-81 1.5,-81"/>
<text text-anchor="start" x="3.5" y="-86.4" font-family="Helvetica,sans-Serif" font-size="14.00" fill="#444444">vehicle</text>
<polygon fill="none" stroke="#818478" stroke-opacity="0.666667" points="0,-80 0,-142 93,-142 93,-80 0,-80"/>
</g>
<!-- films_vehicles&#45;&gt;films -->
<g id="films_vehicles_1" class="edge">
<title>films_vehicles:title&#45;&gt;films:title</title>
<path fill="none" stroke="#555555" d="M92.5,-111C132.3528,-111 111.0209,-177.2708 139.8795,-189.1788"/>
<polygon fill="#555555" stroke="#555555" points="139.5382,-192.6735 150,-191 140.778,-185.7842 139.5382,-192.6735"/>
</g>
<!-- vehicles -->
<g id="vehicles" class="node">
<title>vehicles</title>
<polygon fill="#71503e" stroke="transparent" points="139,-31 139,-51 193,-51 193,-31 139,-31"/>
<text text-anchor="start" x="140.7195" y="-36.4" font-family="Helvetica,sans-Serif" font-size="14.00" fill="#ffffff">vehicles</text>
<polygon fill="#e2dcd8" stroke="transparent" points="139,-11 139,-31 193,-31 193,-11 139,-11"/>
<text text-anchor="start" x="141" y="-17.4" font-family="Helvetica,sans-Serif" text-decoration="underline" font-size="14.00" fill="#444444">name</text>
<polygon fill="none" stroke="#4b3529" stroke-opacity="0.666667" points="138,-10 138,-52 194,-52 194,-10 138,-10"/>
</g>
<!-- films_vehicles&#45;&gt;vehicles -->
<g id="films_vehicles_2" class="edge">
<title>films_vehicles:vehicle&#45;&gt;vehicles:name</title>
<path fill="none" stroke="#555555" d="M92.5,-91C125.9106,-91 106.8694,-34.987 129.2159,-23.1717"/>
<polygon fill="#555555" stroke="#555555" points="129.996,-26.5838 139,-21 128.4791,-19.7501 129.996,-26.5838"/>
</g>
<!-- people&#45;&gt;planets -->
<g id="people_1" class="edge">
<title>people:homeworld&#45;&gt;planets:name</title>
<path fill="none" stroke="#555555" d="M202,-111C241.3013,-111 206.6038,-184.0947 232.0303,-197.8"/>
<polygon fill="#555555" stroke="#555555" points="231.4807,-201.2628 242,-200 232.9892,-194.4273 231.4807,-201.2628"/>
</g>
<!-- species -->
<g id="species" class="node">
<title>species</title>
<polygon fill="#bc8258" stroke="transparent" points="241,-101 241,-121 292,-121 292,-101 241,-101"/>
<text text-anchor="start" x="242.7728" y="-106.4" font-family="Helvetica,sans-Serif" font-size="14.00" fill="#ffffff">species</text>
<polygon fill="#f1e6dd" stroke="transparent" points="241,-81 241,-101 292,-101 292,-81 241,-81"/>
<text text-anchor="start" x="243" y="-87.4" font-family="Helvetica,sans-Serif" text-decoration="underline" font-size="14.00" fill="#444444">name</text>
<polygon fill="none" stroke="#7d563a" stroke-opacity="0.666667" points="239.5,-80 239.5,-122 292.5,-122 292.5,-80 239.5,-80"/>
</g>
<!-- people&#45;&gt;species -->
<g id="people_2" class="edge">
<title>people:species&#45;&gt;species:name</title>
<path fill="none" stroke="#555555" d="M202,-91C215.4063,-91 221.0358,-91 230.9183,-91"/>
<polygon fill="#555555" stroke="#555555" points="231,-94.5001 241,-91 231,-87.5001 231,-94.5001"/>
</g>
<!-- pilots -->
<g id="pilots" class="node">
<title>pilots</title>
<polygon fill="#6e989b" stroke="transparent" points="23.5,-41 23.5,-61 70.5,-61 70.5,-41 23.5,-41"/>
<text text-anchor="start" x="30.6655" y="-46.4" font-family="Helvetica,sans-Serif" font-size="14.00" fill="#ffffff">pilots</text>
<polygon fill="#e2eaeb" stroke="transparent" points="23.5,-21 23.5,-41 70.5,-41 70.5,-21 23.5,-21"/>
<text text-anchor="start" x="25.5" y="-26.4" font-family="Helvetica,sans-Serif" font-size="14.00" fill="#444444">pilot</text>
<polygon fill="#e2eaeb" stroke="transparent" points="23.5,-1 23.5,-21 70.5,-21 70.5,-1 23.5,-1"/>
<text text-anchor="start" x="25.2195" y="-6.4" font-family="Helvetica,sans-Serif" font-size="14.00" fill="#444444">vehicle</text>
<polygon fill="none" stroke="#496567" stroke-opacity="0.666667" points="22,0 22,-62 71,-62 71,0 22,0"/>
</g>
<!-- pilots&#45;&gt;people -->
<g id="pilots_1" class="edge">
<title>pilots:pilot&#45;&gt;people:name</title>
<path fill="none" stroke="#555555" d="M70.5,-31C118.3784,-31 84.2778,-116.7071 119.9874,-129.4292"/>
<polygon fill="#555555" stroke="#555555" points="119.5784,-132.9078 130,-131 120.6633,-125.9924 119.5784,-132.9078"/>
</g>
<!-- pilots&#45;&gt;vehicles -->
<g id="pilots_2" class="edge">
<title>pilots:vehicle&#45;&gt;vehicles:name</title>
<path fill="none" stroke="#555555" d="M70.5,-11C97.5414,-11 106.1968,-18.7248 128.7854,-20.5956"/>
<polygon fill="#555555" stroke="#555555" points="128.8693,-24.1016 139,-21 129.1463,-17.1071 128.8693,-24.1016"/>
</g>
</g>
</svg>

